<svg width="20" height="20" viewBox="0 0 20 20" fill="none" xmlns="http://www.w3.org/2000/svg">
<g clip-path="url(#clip0_304_24904)">
<path d="M20 9.99976C20 8.08842 19.4521 6.21713 18.4215 4.6075C17.3908 2.99788 15.9204 1.71735 14.1844 0.917566C12.4484 0.117783 10.5196 -0.167747 8.62642 0.0947915C6.7332 0.35733 4.95487 1.15694 3.50204 2.39892C2.04922 3.6409 0.982755 5.27322 0.428957 7.10257C-0.124841 8.93192 -0.142775 10.8817 0.377278 12.7209C0.897332 14.5601 1.93359 16.2118 3.36332 17.4803C4.79305 18.7488 6.55637 19.581 8.44444 19.8783V12.8961H5.90074V9.99976H8.44V7.79531C8.44 5.29013 9.93333 3.90494 12.2178 3.90494C12.9677 3.91544 13.7159 3.9808 14.4563 4.1005V6.56124H13.1956C11.9526 6.56124 11.5659 7.33309 11.5659 8.12272V9.99976H14.3393L13.8948 12.8901H11.563V19.8783C13.915 19.5055 16.0568 18.3058 17.6034 16.495C19.1499 14.6842 19.9997 12.3811 20 9.99976Z" fill="#0079FB"/>
<path d="M13.8915 12.8964L14.3359 10.006H11.5626V8.12305C11.5626 7.33342 11.9493 6.56157 13.1922 6.56157H14.453V4.10083C13.7126 3.98113 12.9644 3.91577 12.2145 3.90527C9.93002 3.90527 8.43669 5.29046 8.43669 7.79565V10.0001H5.90039V12.8964H8.43965V19.8845C9.47533 20.0465 10.5299 20.0465 11.5656 19.8845V12.8964H13.8915Z" fill="white"/>
</g>
<defs>
<clipPath id="clip0_304_24904">
<rect width="20" height="20" fill="white"/>
</clipPath>
</defs>
</svg>
