<svg width="20" height="20" viewBox="0 0 20 20" fill="none" xmlns="http://www.w3.org/2000/svg">
<g clip-path="url(#clip0_304_24913)">
<path d="M10 20C15.5228 20 20 15.5228 20 10C20 4.47715 15.5228 0 10 0C4.47715 0 0 4.47715 0 10C0 15.5228 4.47715 20 10 20Z" fill="#4467AD"/>
<path d="M10.7731 8.63735C10.9375 8.45217 11.0694 8.26402 11.2412 8.1055C11.485 7.86784 11.7736 7.68102 12.0903 7.55589C12.4069 7.43076 12.7452 7.36982 13.0856 7.37661C13.4779 7.36985 13.8693 7.41721 14.2486 7.51735C15.1168 7.7692 15.6205 8.36624 15.8619 9.21365C16.022 9.84869 16.0943 10.5027 16.0768 11.1573C16.0768 12.5396 16.0768 13.9203 16.0768 15.3055C16.0768 15.4344 16.0412 15.4685 15.9138 15.467C15.2007 15.4611 14.4891 15.4611 13.779 15.467C13.6531 15.467 13.6308 15.4299 13.6308 15.3188C13.6308 14.0043 13.6308 12.6897 13.6308 11.3751C13.6382 11.0449 13.5993 10.7153 13.5153 10.3959C13.3449 9.80328 12.9227 9.50698 12.3049 9.53809C11.4619 9.58254 11.0219 10.0018 10.9153 10.8596C10.8891 11.064 10.8763 11.2698 10.8768 11.4759C10.8768 12.7544 10.8768 14.0329 10.8768 15.3114C10.8768 15.4388 10.8442 15.4759 10.7138 15.4744C9.99824 15.4744 9.2812 15.4744 8.56416 15.4744C8.44861 15.4744 8.41602 15.4448 8.41602 15.3262C8.41602 12.7959 8.41602 10.265 8.41602 7.73365C8.41602 7.60772 8.45602 7.5855 8.57454 7.5855C9.25602 7.59143 9.93701 7.59143 10.6175 7.5855C10.7419 7.5855 10.7745 7.6255 10.7657 7.74402C10.7686 8.03143 10.7731 8.33365 10.7731 8.63735Z" fill="#FEFEFE"/>
<path d="M6.8748 11.5287C6.8748 12.7805 6.8748 14.0324 6.8748 15.2842C6.8748 15.4235 6.84073 15.4664 6.69702 15.465C5.98443 15.4561 5.27332 15.465 4.56221 15.465C4.44814 15.465 4.41406 15.4368 4.41406 15.3168C4.41406 12.7805 4.41406 10.2452 4.41406 7.71089C4.41406 7.60571 4.44073 7.56274 4.55184 7.57015C5.27332 7.57015 5.9948 7.57015 6.71628 7.57015C6.85554 7.57015 6.87332 7.622 6.87332 7.742C6.87233 9.00422 6.87283 10.2664 6.8748 11.5287Z" fill="#FEFEFE"/>
<path d="M7.06998 5.05884C7.07145 5.34027 6.98929 5.6158 6.83394 5.85048C6.67859 6.08516 6.45704 6.26841 6.1974 6.37699C5.93775 6.48557 5.65171 6.51459 5.37555 6.46037C5.09938 6.40615 4.84553 6.27113 4.64622 6.07244C4.4469 5.87375 4.31109 5.62033 4.256 5.34434C4.20091 5.06835 4.22903 4.78221 4.3368 4.52222C4.44457 4.26224 4.62713 4.04011 4.86131 3.88403C5.0955 3.72794 5.37077 3.64493 5.6522 3.64551C6.02686 3.64745 6.38568 3.79683 6.65102 4.06134C6.91636 4.32584 7.06687 4.6842 7.06998 5.05884Z" fill="#FEFEFE"/>
</g>
<defs>
<clipPath id="clip0_304_24913">
<rect width="20" height="20" fill="white"/>
</clipPath>
</defs>
</svg>
