<svg width="20" height="20" viewBox="0 0 20 20" fill="none" xmlns="http://www.w3.org/2000/svg">
<g clip-path="url(#clip0_301_10292)">
<path d="M10 20C15.5228 20 20 15.5228 20 10C20 4.47715 15.5228 0 10 0C4.47715 0 0 4.47715 0 10C0 15.5228 4.47715 20 10 20Z" fill="#DC4711"/>
<path d="M16.6645 10.0002C16.6651 9.71389 16.5812 9.43375 16.4235 9.19481C16.2657 8.95588 16.041 8.76876 15.7775 8.65683C15.5139 8.5449 15.2233 8.51314 14.9418 8.56552C14.6603 8.6179 14.4005 8.75209 14.1949 8.95132C13.1978 8.23132 11.8245 7.76613 10.2956 7.7128L10.9593 4.58835L13.1297 5.04909C13.1416 5.30112 13.2451 5.54014 13.4206 5.72139C13.5961 5.90263 13.8317 6.01367 14.0832 6.03369C14.3348 6.05371 14.5849 5.98136 14.7869 5.83017C14.9889 5.67898 15.1289 5.45934 15.1806 5.21237C15.2323 4.96541 15.1922 4.70809 15.0677 4.48858C14.9433 4.26907 14.7432 4.10245 14.5047 4.01993C14.2663 3.9374 14.0059 3.94464 13.7725 4.04027C13.539 4.13591 13.3484 4.31339 13.2363 4.53947L10.8126 4.02391C10.7792 4.01664 10.7447 4.01618 10.7111 4.02254C10.6775 4.0289 10.6455 4.04197 10.6171 4.06094C10.5884 4.07957 10.5637 4.10369 10.5443 4.13192C10.525 4.16014 10.5115 4.1919 10.5045 4.22539L9.76375 7.7128C8.21115 7.75576 6.81559 8.22094 5.80671 8.94835C5.65346 8.80136 5.46995 8.68963 5.26902 8.62097C5.06808 8.5523 4.85457 8.52836 4.64342 8.55083C4.43227 8.57329 4.22857 8.64161 4.04658 8.75101C3.86459 8.86041 3.70869 9.00824 3.58979 9.18418C3.4709 9.36012 3.39187 9.5599 3.35824 9.76957C3.32461 9.97923 3.3372 10.1937 3.39511 10.398C3.45302 10.6023 3.55486 10.7915 3.69351 10.9523C3.83217 11.1131 4.00428 11.2417 4.19782 11.3291C4.17511 11.4762 4.16372 11.6247 4.16375 11.7735C4.16375 14.0165 6.7756 15.8358 9.99634 15.8358C13.2171 15.8358 15.8304 14.0165 15.8304 11.7735C15.8306 11.6247 15.8192 11.4761 15.7963 11.3291C16.0541 11.2153 16.2733 11.0292 16.4274 10.7933C16.5815 10.5575 16.6638 10.282 16.6645 10.0002ZM6.66745 11.0372C6.66745 10.8321 6.72827 10.6316 6.84222 10.4611C6.95617 10.2906 7.11813 10.1576 7.30763 10.0791C7.49712 10.0007 7.70564 9.98011 7.9068 10.0201C8.10797 10.0601 8.29275 10.1589 8.43778 10.3039C8.58281 10.449 8.68159 10.6338 8.7216 10.8349C8.76161 11.0361 8.74107 11.2446 8.66258 11.4341C8.58409 11.6236 8.45118 11.7856 8.28064 11.8995C8.1101 12.0135 7.90959 12.0743 7.70448 12.0743C7.43021 12.0743 7.16711 11.9656 6.97276 11.7721C6.7784 11.5786 6.66862 11.316 6.66745 11.0417V11.0372ZM12.4749 13.7898C11.7637 14.4995 10.4008 14.5543 10.0008 14.5543C9.60078 14.5543 8.23782 14.4995 7.52819 13.7898C7.4775 13.7391 7.44903 13.6704 7.44903 13.5987C7.44903 13.527 7.4775 13.4583 7.52819 13.4076C7.57887 13.3569 7.64762 13.3284 7.7193 13.3284C7.79098 13.3284 7.85973 13.3569 7.91041 13.4076C8.35486 13.8521 9.31633 14.015 10.0008 14.015C10.6852 14.015 11.6452 13.8565 12.0941 13.4076C12.1448 13.3571 12.2135 13.3288 12.285 13.329C12.3566 13.3291 12.4251 13.3577 12.4756 13.4084C12.5261 13.459 12.5544 13.5277 12.5542 13.5992C12.5541 13.6708 12.5255 13.7393 12.4749 13.7898ZM12.2912 12.0787C12.086 12.0787 11.8855 12.0179 11.715 11.904C11.5445 11.79 11.4115 11.628 11.3331 11.4385C11.2546 11.249 11.234 11.0405 11.274 10.8394C11.3141 10.6382 11.4128 10.4534 11.5579 10.3084C11.7029 10.1634 11.8877 10.0646 12.0888 10.0246C12.29 9.98456 12.4985 10.0051 12.688 10.0836C12.8775 10.1621 13.0395 10.295 13.1534 10.4655C13.2674 10.6361 13.3282 10.8366 13.3282 11.0417C13.3288 11.1782 13.3024 11.3136 13.2505 11.4399C13.1987 11.5662 13.1224 11.6811 13.026 11.7779C12.9297 11.8746 12.8151 11.9514 12.689 12.0038C12.5629 12.0562 12.4277 12.0832 12.2912 12.0832V12.0787Z" fill="white"/>
</g>
<defs>
<clipPath id="clip0_301_10292">
<rect width="20" height="20" fill="white"/>
</clipPath>
</defs>
</svg>
