<svg width="20" height="20" viewBox="0 0 20 20" fill="none" xmlns="http://www.w3.org/2000/svg">
<g clip-path="url(#clip0_304_24907)">
<path d="M-0.0195312 10.626V9.37812C0.0459599 8.94038 0.0912409 8.50272 0.171845 8.07001C0.589726 5.96396 1.67408 4.04769 3.26499 2.60372C4.8559 1.15976 6.86919 0.264533 9.00814 0.0499178C11.1001 -0.187112 13.2119 0.274608 15.0133 1.36306C18.5951 3.57186 20.2575 6.81219 19.9451 11.0034C19.7924 12.9527 19.0293 14.8044 17.7639 16.2964C16.2494 18.171 14.0979 19.4245 11.7185 19.8184C11.3457 19.8888 10.973 19.9241 10.6002 19.9744H9.34575C9.10394 19.9442 8.84188 19.9191 8.61518 19.8838C6.5169 19.5928 4.56469 18.6461 3.03807 17.1792C1.51145 15.7123 0.48878 13.8006 0.116499 11.7178C0.0913098 11.3757 0.0509977 10.9984 -0.0195312 10.626ZM15.3709 5.78068L14.0963 6.22351C14.0494 6.24233 13.9977 6.24552 13.9488 6.23285C13.8998 6.22017 13.8562 6.19222 13.8243 6.153C13.531 5.88461 13.1728 5.69729 12.7849 5.60944C12.3969 5.5216 11.9928 5.53624 11.6123 5.65207C11.2318 5.7679 10.8881 5.98092 10.6152 6.26994C10.3422 6.55897 10.1495 6.91405 10.056 7.30019C10.0005 7.653 9.97361 8.00977 9.97548 8.36691C9.07491 8.31288 8.19514 8.07356 7.39152 7.66403C6.5879 7.2545 5.87775 6.68348 5.30544 5.98693C5.06439 6.3876 4.95839 6.85503 5.00312 7.32033C5.03265 7.65557 5.13275 7.98073 5.29683 8.27466C5.46091 8.56859 5.68533 8.82461 5.95533 9.02594C5.78505 9.02034 5.61599 8.99506 5.45156 8.95052C5.29035 8.90523 5.13912 8.83978 4.97791 8.7794C4.87212 9.70016 5.57751 10.6058 6.71604 11.0687H5.75879C5.91132 11.5206 6.19684 11.916 6.57792 12.2033C6.959 12.4905 7.41791 12.6562 7.89481 12.6788C6.95155 13.3991 5.77299 13.7419 4.58999 13.6399C4.64279 13.691 4.70212 13.735 4.76636 13.7707C5.7398 14.3356 6.84461 14.6357 7.97045 14.6411C9.53741 14.6958 11.0671 14.1566 12.2526 13.1317C12.9938 12.499 13.5855 11.7102 13.9853 10.822C14.3851 9.93376 14.583 8.96812 14.5648 7.99447C14.5648 7.93835 14.5775 7.88298 14.602 7.83244C14.6264 7.78191 14.6619 7.73761 14.7059 7.70273C15.0132 7.4109 15.3004 7.10396 15.5926 6.79704C15.6194 6.7642 15.64 6.72668 15.6531 6.68637L14.4893 7.00329L14.4641 6.95305C14.8918 6.67707 15.2174 6.26885 15.3911 5.79075L15.3709 5.78068Z" fill="#25AFF4"/>
<path d="M15.3903 5.79106C15.22 6.26256 14.902 6.66665 14.4835 6.94328L14.5087 6.99352L15.6723 6.6766C15.6592 6.71692 15.6388 6.75444 15.6119 6.78728C15.3197 7.0942 15.0326 7.40114 14.7253 7.69296C14.6813 7.72785 14.6457 7.77215 14.6212 7.82268C14.5968 7.87321 14.5842 7.92871 14.5842 7.98483C14.6024 8.95848 14.4045 9.92399 14.0047 10.8122C13.6049 11.7004 13.013 12.4892 12.2718 13.1219C11.0864 14.1468 9.55667 14.686 7.98971 14.6313C6.86387 14.626 5.75918 14.3259 4.78575 13.7609C4.7215 13.7252 4.66217 13.6812 4.60938 13.6301C5.79237 13.7321 6.97093 13.3893 7.91419 12.669C7.43729 12.6464 6.97826 12.4808 6.59718 12.1935C6.2161 11.9063 5.9307 11.5108 5.77818 11.059H6.7353C5.59677 10.5961 4.8915 9.69039 4.99729 8.76964C5.1585 8.83002 5.30961 8.89547 5.47082 8.94075C5.63525 8.98529 5.80431 9.01057 5.97459 9.01618C5.70246 8.81423 5.47643 8.55688 5.31142 8.26109C5.1464 7.9653 5.04621 7.63788 5.01746 7.3005C4.97273 6.8352 5.07873 6.36789 5.31978 5.96721C5.89209 6.66377 6.60224 7.23467 7.40586 7.6442C8.20948 8.05373 9.08925 8.29304 9.98982 8.34708C9.98795 7.98994 10.0149 7.63317 10.0704 7.28035C10.1651 6.89302 10.3597 6.53721 10.6348 6.24827C10.9099 5.95933 11.256 5.7473 11.6385 5.63334C12.0211 5.51937 12.4268 5.50748 12.8155 5.5987C13.2041 5.68992 13.5621 5.88109 13.8538 6.15331C13.8856 6.19253 13.9291 6.22048 13.9781 6.23316C14.0271 6.24583 14.0789 6.24263 14.1258 6.22382L15.3903 5.79106Z" fill="white"/>
</g>
<defs>
<clipPath id="clip0_304_24907">
<rect width="20" height="20" fill="white"/>
</clipPath>
</defs>
</svg>
