<svg width="20" height="20" viewBox="0 0 20 20" fill="none" xmlns="http://www.w3.org/2000/svg">
<g clip-path="url(#clip0_304_24910)">
<path d="M10 20C15.5228 20 20 15.5228 20 10C20 4.47715 15.5228 0 10 0C4.47715 0 0 4.47715 0 10C0 15.5228 4.47715 20 10 20Z" fill="#FF0000"/>
<path d="M16.3889 6.79072C16.3129 6.50643 16.1633 6.24719 15.9553 6.03912C15.7472 5.83105 15.488 5.68149 15.2037 5.60553C14.1696 5.33887 10.0007 5.33887 10.0007 5.33887C10.0007 5.33887 5.83183 5.33887 4.79183 5.61739C4.50754 5.69335 4.2483 5.8429 4.04023 6.05097C3.83216 6.25904 3.6826 6.51829 3.60664 6.80257C3.32813 7.83961 3.32812 10.0115 3.32812 10.0115C3.32812 10.0115 3.32813 12.1818 3.60664 13.2218C3.68333 13.505 3.83324 13.7629 4.0413 13.9696C4.24937 14.1764 4.50823 14.3247 4.79183 14.3996C5.83183 14.6722 10.0007 14.6722 10.0007 14.6722C10.0007 14.6722 14.1696 14.6722 15.2096 14.3937C15.4932 14.3188 15.7521 14.1705 15.9601 13.9637C16.1682 13.757 16.3181 13.499 16.3948 13.2159C16.6733 12.1789 16.6733 10.0055 16.6733 10.0055C16.6733 10.0055 16.6674 7.83072 16.3889 6.79072ZM8.66738 12.0055V8.00553L12.1311 10.0055L8.66738 12.0055Z" fill="white"/>
</g>
<defs>
<clipPath id="clip0_304_24910">
<rect width="20" height="20" fill="white"/>
</clipPath>
</defs>
</svg>
