<svg width="36" height="27" viewBox="0 0 36 27" fill="none" xmlns="http://www.w3.org/2000/svg">
<path d="M0 12.4141C0.111942 11.7945 0.348787 11.2042 0.696112 10.6791C0.992513 10.2782 1.3689 9.94327 1.80145 9.69541C2.234 9.44755 2.71329 9.29217 3.209 9.23913C3.7047 9.18609 4.20601 9.23652 4.68121 9.38725C5.15641 9.53799 5.59516 9.78575 5.96966 10.1148C6.43901 10.5367 6.8714 10.9955 7.31965 11.4437L13.1206 17.2183L13.4739 17.5558C13.5489 17.4283 13.6336 17.3066 13.727 17.1919C19.0498 11.8656 24.3743 6.54284 29.7006 1.22359C30.0123 0.868666 30.3908 0.578599 30.8145 0.369952C31.2382 0.161306 31.6989 0.0381629 32.1703 0.00755707C32.6416 -0.0230488 33.1143 0.0395091 33.5615 0.191603C34.0086 0.343698 34.4215 0.582353 34.7764 0.893992C35.1313 1.20563 35.4214 1.58415 35.63 2.00789C35.8387 2.43163 35.9618 2.89232 35.9924 3.36365C36.0231 3.83498 35.9605 4.30771 35.8084 4.75488C35.6563 5.20204 35.4176 5.61486 35.106 5.96978C34.9953 6.10162 34.8739 6.22821 34.7474 6.35477C28.5422 12.5635 22.3335 18.7722 16.1212 24.9809C15.7369 25.4002 15.2608 25.7249 14.7302 25.9298C14.1997 26.1347 13.6289 26.2143 13.0626 26.1622C12.3111 26.1033 11.5997 25.7995 11.0375 25.2973C10.8793 25.155 10.7317 25.0073 10.584 24.8596C7.63083 21.9064 4.68819 18.9427 1.71918 16.0106C0.901782 15.2091 0.189841 14.3758 0.0263613 13.1945L0 12.4141Z" fill="#0FBD70"/>
</svg>
