<svg width="20" height="20" viewBox="0 0 20 20" fill="none" xmlns="http://www.w3.org/2000/svg">
<g clip-path="url(#clip0_146_10447)">
<path d="M10.6222 20.0001H9.37772C9.33582 19.9831 9.29196 19.9715 9.24713 19.9657C8.40257 19.9112 7.56973 19.74 6.77215 19.4571C5.07236 18.8925 3.55851 17.8758 2.39323 16.516C1.22796 15.1562 0.455214 13.5046 0.158117 11.7389C0.0824891 11.3746 0.0481265 10.9965 0 10.6254V9.37466C0 9.31968 3.35699e-05 9.2647 0.0344096 9.20284C0.0962866 8.75611 0.137565 8.3025 0.233818 7.82827C0.622304 6.0594 1.48432 4.4293 2.72776 3.11225C3.9712 1.79519 5.54927 0.840633 7.29333 0.350688C9.0374 -0.139257 10.8818 -0.146227 12.6295 0.330553C14.3772 0.807333 15.9626 1.7499 17.2159 3.05754C18.4692 4.36519 19.3434 5.98872 19.7453 7.75461C20.1471 9.5205 20.0614 11.3623 19.4972 13.0833C18.933 14.8042 17.9116 16.3395 16.5421 17.5251C15.1727 18.7107 13.5067 19.5021 11.7223 19.8145C11.3579 19.9038 10.9866 19.9451 10.6222 20.0001ZM10.8285 10.8523H12.5748C12.8086 10.8523 12.9391 10.7492 12.9666 10.5499C13.0353 9.99319 13.1041 9.42965 13.1591 8.86608C13.1935 8.57742 13.0561 8.44676 12.7604 8.44676C12.2448 8.44676 11.7223 8.44676 11.1998 8.44676H10.8216C10.8216 7.89006 10.8216 7.36094 10.8216 6.82486C10.8079 6.70146 10.8217 6.57646 10.8622 6.45907C10.9027 6.34168 10.9687 6.23474 11.0556 6.14597C11.1424 6.05719 11.2478 5.98885 11.3642 5.94579C11.4807 5.90272 11.6054 5.88602 11.7292 5.89696C12.0592 5.89696 12.4166 5.89696 12.7191 5.89696C12.7704 5.90373 12.8226 5.89863 12.8716 5.88203C12.9205 5.86542 12.9649 5.8377 13.0015 5.80115C13.038 5.7646 13.0658 5.72023 13.0824 5.67128C13.099 5.62233 13.1041 5.57016 13.0973 5.51892V4.14435C13.1044 4.09335 13.0993 4.04139 13.0827 3.99266C13.0661 3.94393 13.0384 3.89987 13.0016 3.8638C12.9649 3.82773 12.9201 3.80065 12.8711 3.78493C12.822 3.76922 12.77 3.76519 12.7191 3.77319C12.2173 3.77319 11.7154 3.77319 11.2204 3.77319C10.6036 3.75753 10.0015 3.96412 9.52442 4.35527C9.04731 4.74641 8.72694 5.29608 8.62155 5.90384C8.55483 6.22713 8.52247 6.55652 8.5252 6.88661C8.5252 7.40895 8.5252 7.92444 8.5252 8.4674C8.08519 8.4674 7.66588 8.4674 7.23962 8.4674C6.95086 8.4674 6.84081 8.58429 6.84081 8.86608V10.3712C6.84081 10.7904 6.93017 10.8729 7.34268 10.8729H8.5252V15.9108C8.5252 16.2063 8.58708 16.2682 8.87584 16.2682H10.4572C10.7666 16.2682 10.8285 16.2063 10.8285 15.9108C10.8285 14.3162 10.8285 12.7126 10.8285 11.0998V10.8523Z" fill="#0079FB"/>
<path d="M10.8275 10.8523V11.1067C10.8275 12.7012 10.8275 14.3049 10.8275 15.9177C10.8275 16.2132 10.7656 16.2751 10.4562 16.2751H8.87488C8.58612 16.2751 8.52424 16.2132 8.52424 15.9177V10.8798H7.34172C6.92921 10.8798 6.83984 10.7974 6.83984 10.3781V8.87301C6.83984 8.59123 6.9499 8.47433 7.23866 8.47433C7.66492 8.47433 8.08422 8.47433 8.52424 8.47433C8.52424 7.93138 8.52424 7.41588 8.52424 6.89354C8.52151 6.56346 8.55387 6.23406 8.62058 5.91077C8.72597 5.30302 9.04635 4.75334 9.52346 4.3622C10.0006 3.97106 10.6026 3.76446 11.2194 3.78012C11.7145 3.78012 12.2163 3.78012 12.7182 3.78012C12.7691 3.77213 12.821 3.77616 12.8701 3.79187C12.9191 3.80758 12.9639 3.83466 13.0007 3.87073C13.0374 3.9068 13.0651 3.95087 13.0818 3.9996C13.0984 4.04833 13.1034 4.10029 13.0964 4.15128V5.52585C13.1031 5.5771 13.098 5.62926 13.0814 5.67821C13.0648 5.72716 13.0371 5.77154 13.0005 5.80808C12.964 5.84463 12.9196 5.87236 12.8706 5.88896C12.8216 5.90556 12.7694 5.91067 12.7182 5.90389C12.3882 5.90389 12.0307 5.90389 11.7282 5.90389C11.6045 5.89296 11.4798 5.90966 11.3633 5.95272C11.2468 5.99579 11.1414 6.06413 11.0546 6.1529C10.9678 6.24168 10.9017 6.34861 10.8612 6.46601C10.8208 6.5834 10.8069 6.70823 10.8206 6.83163C10.8206 7.36771 10.8206 7.89699 10.8206 8.4537H11.1988C11.7213 8.4537 12.2438 8.4537 12.7595 8.4537C13.0551 8.4537 13.1925 8.58435 13.1581 8.87301C13.1031 9.43659 13.0344 10.0001 12.9656 10.5568C12.9656 10.7561 12.8076 10.8592 12.5738 10.8592H10.8275V10.8523Z" fill="white"/>
</g>
<defs>
<clipPath id="clip0_146_10447">
<rect width="20" height="20" fill="white"/>
</clipPath>
</defs>
</svg>
