<svg width="25" height="32" viewBox="0 0 25 32" fill="none" xmlns="http://www.w3.org/2000/svg">
<path d="M24.4211 14.5724V29.439C24.4211 29.5037 24.4211 29.5685 24.3552 29.6424C24.2401 30.1574 23.989 30.6336 23.6272 31.023C23.2654 31.4125 22.8056 31.7016 22.294 31.8613L21.8141 32H2.61444L2.53908 31.9538C1.79287 31.8294 1.12043 31.4368 0.652507 30.8524C0.184587 30.268 -0.0453067 29.5335 0.00741231 28.7918V15.1456C-0.0113769 14.7283 0.058541 14.3118 0.212832 13.9225C0.367122 13.5333 0.602427 13.18 0.903537 12.885C1.20465 12.5901 1.56497 12.3601 1.96165 12.2097C2.35833 12.0593 2.78264 11.9917 3.20738 12.0114C3.48973 12.0114 3.77201 12.0114 4.08259 12.0114C4.08259 10.6986 4.08259 9.43196 4.08259 8.16533C4.0887 7.64517 4.13275 7.12609 4.21437 6.6121C4.5666 4.6334 5.66481 2.8577 7.29014 1.63878C8.91548 0.419871 10.9487 -0.152763 12.9846 0.034986C15.0204 0.222735 16.9095 1.15708 18.2755 2.65185C19.6415 4.14663 20.3841 6.09208 20.3553 8.10061V12.0114C20.7506 12.0114 21.0988 12.0114 21.4471 12.0114C22.08 12.0298 22.6914 12.2407 23.1972 12.6149C23.7029 12.9892 24.078 13.5084 24.2705 14.1009L24.4211 14.5724ZM17.6353 11.9929C17.6353 10.9482 17.6353 9.93121 17.6353 8.91421C17.6471 8.29646 17.6157 7.67864 17.5412 7.06513C17.3161 5.73779 16.587 4.5437 15.5009 3.7237C14.4148 2.9037 13.0526 2.51881 11.689 2.64666C10.3253 2.77452 9.06176 3.4056 8.15318 4.41262C7.2446 5.41965 6.75857 6.72768 6.79314 8.07288V11.9837L17.6353 11.9929ZM10.8684 23.9565V24.6129C10.8684 24.881 10.8684 25.1399 10.8684 25.3988C10.8829 25.7406 11.0308 26.0638 11.2813 26.3013C11.5319 26.5389 11.866 26.6726 12.2142 26.6746C12.5623 26.6773 12.8977 26.5464 13.1491 26.3098C13.4004 26.0733 13.5479 25.7497 13.5601 25.408C13.5601 24.4835 13.5601 23.5589 13.5601 22.6344C13.5529 22.5292 13.5743 22.4241 13.6223 22.3298C13.6703 22.2355 13.743 22.1556 13.833 22.0982C14.3439 21.7356 14.7063 21.2057 14.8547 20.6039C15.0031 20.0022 14.9279 19.3681 14.6425 18.816C14.3708 18.2561 13.9061 17.8087 13.3307 17.5531C12.7553 17.2976 12.1064 17.2504 11.4989 17.42C11.0096 17.552 10.568 17.8167 10.2247 18.1839C9.88146 18.551 9.65048 19.0057 9.55814 19.4959C9.46581 19.9861 9.51587 20.4919 9.70267 20.9554C9.88947 21.419 10.2054 21.8214 10.6143 22.1167C10.6985 22.1651 10.767 22.236 10.8119 22.321C10.8569 22.4061 10.8765 22.5019 10.8684 22.5974C10.8214 23.0689 10.8684 23.5127 10.8684 23.9565Z" fill="#5FB2FF"/>
</svg>
