<svg width="100" height="100" viewBox="0 0 100 100" fill="none" xmlns="http://www.w3.org/2000/svg">
<g clip-path="url(#clip0_137_2200)">
<path d="M100 50.0012C99.9092 63.2024 94.6013 75.8321 85.2344 85.1348C75.8674 94.4376 63.2016 99.6585 50 99.6585C36.7984 99.6585 24.1326 94.4376 14.7656 85.1348C5.39866 75.8321 0.0908032 63.2024 0 50.0012C0 22.3074 22.473 1.52588e-05 49.9988 1.52588e-05C77.6997 1.52588e-05 100 22.4635 100 50.0012Z" fill="#D6DCE8"/>
<path d="M7.09199 88.437C7.55732 88.3494 8.03819 88.4014 8.47401 88.5865C8.90984 88.7716 9.28112 89.0816 9.54107 89.4774C9.80103 89.8732 9.93803 90.3371 9.93481 90.8106C9.9316 91.2841 9.78831 91.746 9.523 92.1382C9.25769 92.5304 8.88223 92.8353 8.44393 93.0145C8.00563 93.1937 7.52409 93.2392 7.06 93.1452C6.5959 93.0512 6.17001 92.822 5.83599 92.4863C5.50196 92.1507 5.27475 91.7237 5.18297 91.2592C5.12287 90.9485 5.12458 90.6291 5.18801 90.3191C5.25144 90.009 5.37533 89.7146 5.55263 89.4525C5.72992 89.1904 5.95712 88.9658 6.22126 88.7916C6.48539 88.6174 6.78127 88.4969 7.09199 88.437Z" fill="#D6DCE8"/>
<path d="M3.34018 83.907C3.63673 83.8509 3.94324 83.884 4.22104 84.0019C4.49885 84.1198 4.73552 84.3174 4.9012 84.5696C5.06688 84.8219 5.15417 85.1176 5.15204 85.4194C5.1499 85.7211 5.05846 86.0155 4.88923 86.2654C4.72 86.5153 4.48057 86.7095 4.20112 86.8235C3.92168 86.9375 3.61474 86.9662 3.319 86.906C3.02327 86.8458 2.75199 86.6994 2.53937 86.4852C2.32675 86.271 2.18231 85.9986 2.12427 85.7025C2.08584 85.5047 2.08682 85.3013 2.12717 85.1039C2.16752 84.9065 2.24644 84.7191 2.35941 84.5522C2.47238 84.3854 2.61716 84.2426 2.78547 84.1318C2.95377 84.0211 3.14228 83.9447 3.34018 83.907Z" fill="#D6DCE8"/>
<path d="M96.7521 10.9621C97.2175 10.8743 97.6985 10.9262 98.1345 11.1114C98.5704 11.2965 98.9418 11.6066 99.2017 12.0026C99.4617 12.3985 99.5987 12.8624 99.5954 13.3361C99.592 13.8097 99.4485 14.2717 99.183 14.6639C98.9175 15.0561 98.5418 15.361 98.1033 15.54C97.6648 15.719 97.1831 15.7642 96.7189 15.6698C96.2548 15.5755 95.829 15.3458 95.4951 15.0099C95.1613 14.6739 94.9344 14.2466 94.8431 13.7818C94.783 13.4713 94.7847 13.152 94.8482 12.8421C94.9116 12.5323 95.0356 12.238 95.2129 11.9761C95.3902 11.7142 95.6174 11.4898 95.8815 11.3158C96.1456 11.1418 96.4415 11.0216 96.7521 10.9621Z" fill="#D6DCE8"/>
<path d="M92.9979 6.42962C93.2944 6.37312 93.6011 6.40575 93.8791 6.52333C94.1572 6.64091 94.3941 6.8382 94.5602 7.09032C94.7262 7.34245 94.8138 7.63808 94.812 7.93996C94.8102 8.24184 94.719 8.53643 94.55 8.78654C94.3809 9.03665 94.1416 9.23109 93.8622 9.34533C93.5827 9.45957 93.2757 9.48846 92.9799 9.42841C92.684 9.36835 92.4126 9.22203 92.1998 9.00788C91.9871 8.79372 91.8425 8.52135 91.7844 8.22512C91.708 7.82618 91.7928 7.41322 92.0202 7.07669C92.2477 6.74017 92.5992 6.5075 92.9979 6.42962Z" fill="#D6DCE8"/>
<path d="M88.9457 16.8476H12.2703C7.73157 16.8476 4.05225 20.527 4.05225 25.0656V72.9615C4.05225 77.5001 7.73157 81.1795 12.2703 81.1795H88.9457C93.4844 81.1795 97.1637 77.5001 97.1637 72.9615V25.0656C97.1637 20.527 93.4844 16.8476 88.9457 16.8476Z" fill="#F1F3F9"/>
<path d="M97.1637 27.0314V25.068C97.1637 22.8878 96.2976 20.797 94.756 19.2553C93.2144 17.7137 91.1235 16.8476 88.9433 16.8476H12.2703C11.1909 16.8476 10.122 17.0603 9.12481 17.4734C8.12761 17.8866 7.22155 18.4921 6.45841 19.2555C5.69526 20.0188 5.08998 20.9251 4.67713 21.9224C4.26427 22.9197 4.05194 23.9886 4.05225 25.068V27.0314H97.1637Z" fill="url(#paint0_linear_137_2200)"/>
<path d="M11.5889 22.3334C11.5896 22.5132 11.5546 22.6912 11.4861 22.8574C11.4177 23.0236 11.317 23.1745 11.1899 23.3016C11.0628 23.4287 10.9118 23.5294 10.7456 23.5979C10.5795 23.6664 10.4014 23.7013 10.2216 23.7007C9.85606 23.7032 9.50438 23.5607 9.24366 23.3045C8.98294 23.0482 8.83444 22.699 8.83069 22.3334C8.83317 21.9653 8.98051 21.6129 9.24083 21.3526C9.50115 21.0923 9.85351 20.9449 10.2216 20.9425C10.5872 20.9462 10.9364 21.0947 11.1927 21.3554C11.449 21.6161 11.5915 21.9678 11.5889 22.3334Z" fill="url(#paint1_linear_137_2200)"/>
<path d="M16.8287 22.3334C16.8293 22.5132 16.7944 22.6912 16.7259 22.8574C16.6574 23.0236 16.5567 23.1745 16.4296 23.3016C16.3025 23.4287 16.1515 23.5294 15.9854 23.5979C15.8192 23.6664 15.6411 23.7013 15.4614 23.7007C15.0958 23.7032 14.7441 23.5607 14.4834 23.3045C14.2227 23.0482 14.0742 22.699 14.0704 22.3334C14.0729 21.9653 14.2203 21.6129 14.4806 21.3526C14.7409 21.0923 15.0933 20.9449 15.4614 20.9425C15.827 20.9462 16.1761 21.0947 16.4324 21.3554C16.6887 21.6161 16.8312 21.9678 16.8287 22.3334Z" fill="url(#paint2_linear_137_2200)"/>
<path d="M22.0685 22.3334C22.0691 22.5132 22.0342 22.6912 21.9657 22.8574C21.8972 23.0236 21.7965 23.1745 21.6694 23.3016C21.5423 23.4287 21.3913 23.5294 21.2252 23.5979C21.059 23.6664 20.8809 23.7013 20.7012 23.7007C20.3356 23.7032 19.9839 23.5607 19.7232 23.3045C19.4625 23.0482 19.314 22.699 19.3102 22.3334C19.3127 21.9653 19.46 21.6129 19.7204 21.3526C19.9807 21.0923 20.333 20.9449 20.7012 20.9425C21.0667 20.9462 21.4159 21.0947 21.6722 21.3554C21.9285 21.6161 22.071 21.9678 22.0685 22.3334Z" fill="url(#paint3_linear_137_2200)"/>
<path d="M90.2018 93.9039C89.6857 94.372 89.0822 94.7336 88.426 94.9678C87.7698 95.2021 87.0738 95.3045 86.378 95.2691C85.6821 95.2337 85.0001 95.0613 84.371 94.7616C83.742 94.462 83.1783 94.0411 82.7124 93.523L72.3795 81.998C72.2163 81.8191 72.09 81.6097 72.008 81.3819C71.926 81.154 71.8899 80.9122 71.9018 80.6703C71.9136 80.4284 71.9733 80.1913 72.0772 79.9726C72.1811 79.7538 72.3273 79.5578 72.5073 79.3958L72.5262 79.3769L66.0776 72.3488L66.8559 71.7881C68.4465 70.6121 69.8953 69.2554 71.1731 67.7454L77.6122 74.7782L77.6311 74.7617C77.9943 74.4358 78.4716 74.2666 78.959 74.2909C79.4463 74.3153 79.9044 74.5312 80.2332 74.8918L90.5779 86.4239C91.0448 86.9395 91.4055 87.5421 91.6394 88.1973C91.8732 88.8524 91.9756 89.5472 91.9407 90.2419C91.9057 90.9366 91.7342 91.6177 91.4358 92.246C91.1374 92.8744 90.7181 93.4377 90.2018 93.9039Z" fill="url(#paint4_linear_137_2200)"/>
<path d="M72.4268 32.6828C62.1295 21.302 44.4634 20.4126 33.0613 30.7312C28.894 34.5151 25.968 39.4706 24.6673 44.9471C23.3667 50.4237 23.7522 56.1656 25.7732 61.4192C27.7942 66.6728 31.3563 71.1926 35.992 74.3855C40.6277 77.5784 46.1204 79.2953 51.7493 79.3107C67.1256 79.3107 79.6631 66.6738 79.6631 51.3969C79.6663 44.4753 77.0858 37.8017 72.4268 32.6828ZM51.747 73.1555C47.4567 73.1456 43.2654 71.8651 39.7023 69.4754C36.1391 67.0857 33.3637 63.694 31.7264 59.7284C30.0891 55.7627 29.6633 51.401 30.5027 47.1936C31.3421 42.9862 33.4091 39.1218 36.4428 36.088C39.4766 33.0543 43.341 30.9873 47.5484 30.1479C51.7558 29.3085 56.1176 29.7343 60.0832 31.3716C64.0488 33.0089 67.4405 35.7843 69.8302 39.3474C72.2199 42.9106 73.5004 47.1019 73.5103 51.3922C73.5103 63.2035 63.809 73.1555 51.747 73.1555Z" fill="url(#paint5_linear_137_2200)"/>
<path d="M11.3524 3.67611C11.8178 3.58831 12.2988 3.64027 12.7348 3.82543C13.1707 4.01059 13.5421 4.32066 13.8021 4.71656C14.062 5.11247 14.199 5.57649 14.1957 6.05012C14.1923 6.52374 14.0489 6.98577 13.7833 7.37798C13.5178 7.77019 13.1421 8.07501 12.7036 8.25401C12.2651 8.43302 11.7834 8.47818 11.3193 8.38384C10.8551 8.2895 10.4293 8.05988 10.0954 7.72389C9.76162 7.38791 9.53472 6.9606 9.44337 6.49586C9.38329 6.18534 9.38503 5.86603 9.44849 5.55618C9.51194 5.24633 9.63587 4.95204 9.81318 4.69014C9.9905 4.42824 10.2177 4.20385 10.4818 4.02985C10.7459 3.85585 11.0418 3.73566 11.3524 3.67611Z" fill="#D6DCE8"/>
</g>
<defs>
<linearGradient id="paint0_linear_137_2200" x1="4.05225" y1="21.9407" x2="97.1637" y2="21.9407" gradientUnits="userSpaceOnUse">
<stop stop-color="#AAB2C5"/>
<stop offset="1" stop-color="#D6DCE8"/>
</linearGradient>
<linearGradient id="paint1_linear_137_2200" x1="8.83069" y1="22.3216" x2="11.5889" y2="22.3216" gradientUnits="userSpaceOnUse">
<stop stop-color="#D6DCE8"/>
<stop offset="1" stop-color="#F1F3F9"/>
</linearGradient>
<linearGradient id="paint2_linear_137_2200" x1="14.0704" y1="22.3216" x2="16.8287" y2="22.3216" gradientUnits="userSpaceOnUse">
<stop stop-color="#D6DCE8"/>
<stop offset="1" stop-color="#F1F3F9"/>
</linearGradient>
<linearGradient id="paint3_linear_137_2200" x1="19.3102" y1="22.3216" x2="22.0685" y2="22.3216" gradientUnits="userSpaceOnUse">
<stop stop-color="#D6DCE8"/>
<stop offset="1" stop-color="#F1F3F9"/>
</linearGradient>
<linearGradient id="paint4_linear_137_2200" x1="66.0776" y1="81.5083" x2="91.9547" y2="81.5083" gradientUnits="userSpaceOnUse">
<stop stop-color="#989FB0"/>
<stop offset="1" stop-color="#AAB2C5"/>
</linearGradient>
<linearGradient id="paint5_linear_137_2200" x1="23.8994" y1="51.4229" x2="79.6679" y2="51.4229" gradientUnits="userSpaceOnUse">
<stop stop-color="#989FB0"/>
<stop offset="1" stop-color="#AAB2C5"/>
</linearGradient>
<clipPath id="clip0_137_2200">
<rect width="100" height="100" fill="white"/>
</clipPath>
</defs>
</svg>
