<svg width="33" height="33" viewBox="0 0 33 33" fill="none" xmlns="http://www.w3.org/2000/svg">
<path d="M20.6969 32.056C20.2411 31.9835 19.8082 31.8069 19.4318 31.5398C19.0554 31.2727 18.7457 30.9223 18.5269 30.516L13.6769 22.516C13.3898 22.0902 13.2671 21.5747 13.3315 21.0653C13.3958 20.5558 13.6429 20.087 14.0269 19.746C17.0135 16.746 20.0135 13.746 23.0269 10.746C23.2747 10.491 23.4477 10.1727 23.5269 9.82602C23.5702 9.58321 23.5306 9.33289 23.4145 9.11526C23.2985 8.89764 23.1126 8.72532 22.8869 8.62601C22.6615 8.50965 22.4039 8.47105 22.1543 8.51626C21.9047 8.56148 21.6771 8.68798 21.5069 8.87601L18.6269 11.776L12.4369 18.006C12.0888 18.4263 11.5921 18.6962 11.05 18.7596C10.508 18.8229 9.96244 18.6747 9.52687 18.346L1.72686 13.496C1.25538 13.2177 0.855314 12.8333 0.558466 12.3733C0.261617 11.9132 0.0761633 11.3902 0.016855 10.846C-0.0593654 10.1325 0.122702 9.41527 0.530008 8.82449C0.937314 8.23372 1.54288 7.80852 2.23686 7.62601L9.89686 5.39603L27.8969 0.175994C28.4427 -0.0196876 29.0336 -0.052998 29.5979 0.0801079C30.1623 0.213214 30.676 0.507031 31.0769 0.925994C31.5016 1.33161 31.8002 1.85125 31.9368 2.42245C32.0734 2.99365 32.0422 3.59214 31.8469 4.14603L24.2569 29.706C23.8069 31.186 22.6469 32.066 20.6969 32.056Z" fill="#5FB2FF"/>
</svg>
