<svg width="20" height="20" viewBox="0 0 20 20" fill="none" xmlns="http://www.w3.org/2000/svg">
<g clip-path="url(#clip0_146_10455)">
<path d="M-0.0195312 10.6265V9.3786C0.0459599 8.94087 0.0912409 8.50321 0.171845 8.0705C0.589726 5.96445 1.67408 4.04817 3.26499 2.60421C4.8559 1.16024 6.86919 0.265022 9.00814 0.0504061C11.1001 -0.186624 13.2119 0.275096 15.0133 1.36354C18.5951 3.57235 20.2575 6.81268 19.9451 11.0039C19.7924 12.9532 19.0293 14.8049 17.7639 16.2968C16.2494 18.1715 14.0979 19.425 11.7185 19.8189C11.3457 19.8893 10.973 19.9245 10.6002 19.9749H9.34575C9.10394 19.9447 8.84188 19.9195 8.61518 19.8843C6.5169 19.5933 4.56469 18.6465 3.03807 17.1797C1.51145 15.7128 0.48878 13.8011 0.116499 11.7183C0.0913098 11.3762 0.0509977 10.9988 -0.0195312 10.6265ZM15.3709 5.78117L14.0963 6.224C14.0494 6.24281 13.9977 6.24601 13.9488 6.23334C13.8998 6.22066 13.8562 6.19271 13.8243 6.15349C13.531 5.88509 13.1728 5.69777 12.7849 5.60993C12.3969 5.52209 11.9928 5.53673 11.6123 5.65256C11.2318 5.76839 10.8881 5.98141 10.6152 6.27043C10.3422 6.55945 10.1495 6.91453 10.056 7.30068C10.0005 7.65349 9.97361 8.01026 9.97548 8.3674C9.07491 8.31337 8.19514 8.07405 7.39152 7.66452C6.5879 7.25499 5.87775 6.68397 5.30544 5.98741C5.06439 6.38809 4.95839 6.85552 5.00312 7.32082C5.03265 7.65605 5.13275 7.98122 5.29683 8.27515C5.46091 8.56908 5.68533 8.8251 5.95533 9.02643C5.78505 9.02082 5.61599 8.99555 5.45156 8.951C5.29035 8.90572 5.13912 8.84027 4.97791 8.77989C4.87212 9.70065 5.57751 10.6063 6.71604 11.0692H5.75879C5.91132 11.5211 6.19684 11.9165 6.57792 12.2038C6.959 12.491 7.41791 12.6567 7.89481 12.6793C6.95155 13.3996 5.77299 13.7424 4.58999 13.6403C4.64279 13.6915 4.70212 13.7354 4.76636 13.7712C5.7398 14.3361 6.84461 14.6362 7.97045 14.6416C9.53741 14.6962 11.0671 14.157 12.2526 13.1322C12.9938 12.4995 13.5855 11.7106 13.9853 10.8224C14.3851 9.93425 14.583 8.96861 14.5648 7.99496C14.5648 7.93884 14.5775 7.88347 14.602 7.83293C14.6264 7.7824 14.6619 7.7381 14.7059 7.70322C15.0132 7.41139 15.3004 7.10445 15.5926 6.79753C15.6194 6.76469 15.64 6.72717 15.6531 6.68685L14.4893 7.00378L14.4641 6.95354C14.8918 6.67756 15.2174 6.26933 15.3911 5.79124L15.3709 5.78117Z" fill="#25AFF4"/>
<path d="M15.3903 5.79131C15.22 6.2628 14.902 6.66689 14.4835 6.94353L14.5087 6.99377L15.6723 6.67685C15.6592 6.71716 15.6388 6.75468 15.6119 6.78752C15.3197 7.09444 15.0326 7.40138 14.7253 7.69321C14.6813 7.72809 14.6457 7.77239 14.6212 7.82293C14.5968 7.87346 14.5842 7.92896 14.5842 7.98507C14.6024 8.95872 14.4045 9.92424 14.0047 10.8124C13.6049 11.7006 13.013 12.4895 12.2718 13.1222C11.0864 14.147 9.55667 14.6862 7.98971 14.6316C6.86387 14.6262 5.75918 14.3261 4.78575 13.7612C4.7215 13.7254 4.66217 13.6815 4.60938 13.6303C5.79237 13.7324 6.97093 13.3896 7.91419 12.6693C7.43729 12.6467 6.97826 12.481 6.59718 12.1937C6.2161 11.9065 5.9307 11.5111 5.77817 11.0592H6.7353C5.59677 10.5963 4.8915 9.69064 4.99729 8.76988C5.1585 8.83026 5.30961 8.89571 5.47082 8.941C5.63525 8.98554 5.80431 9.01082 5.97459 9.01642C5.70246 8.81448 5.47643 8.55712 5.31142 8.26133C5.1464 7.96555 5.04621 7.63812 5.01746 7.30074C4.97273 6.83544 5.07873 6.36813 5.31978 5.96746C5.89209 6.66401 6.60224 7.23491 7.40586 7.64444C8.20948 8.05397 9.08925 8.29329 9.98982 8.34732C9.98795 7.99018 10.0149 7.63341 10.0704 7.28059C10.1651 6.89326 10.3597 6.53745 10.6348 6.24851C10.9099 5.95957 11.256 5.74755 11.6385 5.63358C12.0211 5.51962 12.4268 5.50772 12.8155 5.59894C13.2041 5.69016 13.5621 5.88133 13.8538 6.15356C13.8856 6.19277 13.9291 6.22073 13.9781 6.2334C14.0271 6.24608 14.0789 6.24288 14.1258 6.22407L15.3903 5.79131Z" fill="white"/>
</g>
<defs>
<clipPath id="clip0_146_10455">
<rect width="20" height="20" fill="white"/>
</clipPath>
</defs>
</svg>
